<?xml version="1.0" standalone="no"?>
<!DOCTYPE svg PUBLIC "-//W3C//DTD SVG 20010904//EN"
 "http://www.w3.org/TR/2001/REC-SVG-20010904/DTD/svg10.dtd">
<svg version="1.0" xmlns="http://www.w3.org/2000/svg"
 width="1136.000000pt" height="1280.000000pt" viewBox="0 0 1136.000000 1280.000000"
 preserveAspectRatio="xMidYMid meet">
<metadata>
Created by potrace 1.15, written by Peter Selinger 2001-2017
</metadata>
<g transform="translate(0.000000,1280.000000) scale(0.100000,-0.100000)"
fill="#000000" stroke="none">
<path d="M2395 11876 c-341 -67 -620 -322 -715 -656 -28 -96 -38 -290 -21
-396 62 -382 358 -681 749 -755 92 -17 308 -6 400 20 321 93 560 339 648 667
14 54 18 103 18 224 -1 139 -3 164 -27 243 -97 316 -322 541 -634 633 -109 32
-307 42 -418 20z"/>
<path d="M2752 9770 c-123 -22 -189 -50 -239 -102 -38 -40 -71 -110 -79 -170
-3 -29 32 -281 110 -783 64 -407 118 -749 121 -760 3 -16 -10 -29 -68 -65
-176 -109 -416 -310 -578 -485 -411 -444 -672 -982 -770 -1590 -30 -184 -38
-594 -15 -789 104 -903 588 -1690 1343 -2186 368 -242 786 -400 1238 -467 171
-25 649 -25 820 0 548 82 1045 296 1475 637 135 107 372 346 477 480 371 479
583 1012 636 1603 l12 129 744 -791 c708 -753 745 -791 761 -774 10 10 122
146 249 302 l233 284 -35 36 c-18 20 -420 447 -892 949 -696 741 -867 918
-909 940 l-51 27 -1805 3 -1806 2 -145 928 c-80 510 -143 930 -140 934 3 4
600 99 1326 213 726 113 1335 211 1354 217 46 14 110 74 132 123 22 48 24 120
5 236 -15 91 -39 150 -78 186 -35 33 -108 63 -156 63 -23 0 -633 -92 -1354
-205 -721 -113 -1316 -205 -1322 -205 -7 0 -38 175 -79 443 -40 256 -76 459
-86 483 -43 97 -141 164 -253 170 -35 2 -114 -5 -176 -16z m-2 -2357 c0 -5 62
-406 138 -893 150 -953 145 -932 219 -1006 50 -50 109 -74 211 -84 49 -6 822
-10 1770 -10 l1682 0 0 -69 c0 -39 -5 -128 -11 -198 -116 -1383 -1304 -2415
-2685 -2332 -1044 62 -1936 750 -2264 1748 -89 270 -124 499 -123 801 1 236
22 406 78 625 132 515 438 992 854 1332 109 88 131 103 131 86z"/>
<path d="M9105 3806 c-132 -162 -240 -298 -240 -303 0 -5 23 -35 51 -67 l50
-57 240 293 c132 161 244 299 248 306 6 10 -9 31 -45 68 -29 30 -56 54 -59 54
-3 0 -113 -133 -245 -294z"/>
<path d="M9351 3553 c-133 -163 -245 -301 -247 -307 -2 -6 24 -40 59 -74 l64
-64 247 302 248 301 -53 57 c-29 31 -57 63 -64 70 -8 9 -67 -57 -254 -285z"/>
<path d="M9605 3275 c-132 -161 -241 -298 -243 -303 -1 -5 36 -50 83 -100 109
-115 167 -147 270 -146 100 1 148 27 274 149 126 121 151 166 151 270 0 103
-26 149 -166 299 -64 69 -120 126 -123 125 -3 0 -114 -132 -246 -294z"/>
</g>
</svg>
