<?xml version="1.0" encoding="iso-8859-1"?>
<!-- Generator: Adobe Illustrator 19.0.0, SVG Export Plug-In . SVG Version: 6.00 Build 0)  -->
<svg version="1.1" id="Layer_1" xmlns="http://www.w3.org/2000/svg" xmlns:xlink="http://www.w3.org/1999/xlink" x="0px" y="0px"
	 viewBox="0 0 292.779 292.779" style="enable-background:new 0 0 292.779 292.779;" xml:space="preserve">
<g>
	<path style="fill:#FFDB77;" d="M167.16,57.47h-41.542c-29.05,0-53.514,21.718-56.956,50.564L52.943,239.761
		c-2.89,24.215,16.022,45.517,40.409,45.517h106.075c24.387,0,43.298-21.302,40.409-45.517l-15.719-131.727
		C220.674,79.188,196.211,57.47,167.16,57.47z"/>
	<path style="fill:#FF7876;" d="M168.825,140.15c-12.385-0.035-22.436,9.994-22.436,22.37c0-12.376-10.051-22.406-22.436-22.37
		c-19.476,0.056-29.705,23.594-16.102,37.822l-0.006,0.002l30.659,31.868c4.304,4.474,11.464,4.474,15.769,0l30.659-31.868
		l-0.006-0.002C198.547,163.726,188.274,140.206,168.825,140.15z"/>
	<path style="fill:#FFDB77;" d="M179.084,7.5h-65.389c-8.725,0-14.95,8.457-12.358,16.788l17.49,33.494h55.124l17.49-33.494
		C194.034,15.957,187.808,7.5,179.084,7.5z"/>
	<g>
		<path style="fill:#414042;" d="M247.283,238.873l-15.719-131.727c-3.152-26.41-21.928-47.555-46.402-54.629
			c13.786-26.401,13.127-24.999,13.44-26C202.702,13.346,192.878,0,179.084,0h-65.389C97.259,0,89.492,17.805,94.689,27.759
			l12.927,24.757c-24.473,7.075-43.25,28.219-46.402,54.629L45.496,238.873c-3.421,28.67,19.004,53.906,47.856,53.906h106.076
			C228.3,292.778,250.701,267.521,247.283,238.873z M113.695,15h65.389c3.504,0,6.025,3.225,5.331,6.541L169.54,50.026
			c-2.356-0.086-43.864-0.089-46.302,0l-14.874-28.485C107.669,18.223,110.192,15,113.695,15z M199.427,277.778H93.351
			c-19.886,0-35.317-17.397-32.961-37.129l15.719-131.727c2.804-23.496,22.304-43.641,49.326-43.641l-8.508,21.833
			c-1.504,3.859,0.405,8.207,4.265,9.711c3.866,1.505,8.21-0.411,9.712-4.265l10.631-27.279h9.711l10.631,27.279
			c1.504,3.86,5.854,5.769,9.712,4.265c3.859-1.504,5.769-5.852,4.265-9.711l-8.508-21.833c26.944,0,46.512,20.064,49.326,43.641
			l15.719,131.727C234.746,260.396,219.299,277.778,199.427,277.778z"/>
		<path style="fill:#414042;" d="M198.573,160.671c-0.951-15.667-14.009-27.976-29.727-28.021c-0.029,0-0.059,0-0.088,0
			c-8.601,0-16.628,3.611-22.369,10.074c-5.734-6.456-13.759-10.074-22.37-10.074c-0.028,0-0.059,0-0.087,0
			c-26.036,0.075-39.472,31.262-21.74,50.251c0.08,0.093,0.164,0.184,0.249,0.273l30.659,31.868
			c7.264,7.55,19.316,7.547,26.579-0.001c0.213-0.221,30.706-31.909,30.907-32.14c5.577-5.972,8.484-14.054,7.986-22.232v0.002
			H198.573z M179.505,172.79c-0.063,0.066-0.126,0.134-0.186,0.202l-30.449,31.651c-1.353,1.406-3.605,1.409-4.96,0.001
			l-30.45-31.651c-0.061-0.068-0.123-0.136-0.187-0.202c-8.997-9.409-2.343-25.102,10.702-25.139c0.015,0,0.028,0,0.043,0
			c8.221,0,14.871,6.651,14.871,14.87c0,4.142,3.357,7.5,7.5,7.5s7.5-3.358,7.5-7.5c0-8.113,6.518-14.864,14.914-14.87
			C181.774,147.688,188.539,163.342,179.505,172.79z"/>
	</g>
</g>
<g>
</g>
<g>
</g>
<g>
</g>
<g>
</g>
<g>
</g>
<g>
</g>
<g>
</g>
<g>
</g>
<g>
</g>
<g>
</g>
<g>
</g>
<g>
</g>
<g>
</g>
<g>
</g>
<g>
</g>
</svg>
